<?xml version="1.0" encoding="UTF-8" ?>
<svg version="1.1" width="64" height="64" xmlns="http://www.w3.org/2000/svg" shape-rendering="crispEdges">
<rect x="27" y="24" width="1" height="1" fill="#000000" />
<rect x="35" y="24" width="1" height="1" fill="#000000" />
<rect x="26" y="25" width="1" height="1" fill="#000000" />
<rect x="27" y="25" width="1" height="1" fill="#000000" />
<rect x="28" y="25" width="1" height="1" fill="#000000" />
<rect x="34" y="25" width="1" height="1" fill="#000000" />
<rect x="35" y="25" width="1" height="1" fill="#000000" />
<rect x="36" y="25" width="1" height="1" fill="#000000" />
<rect x="26" y="26" width="1" height="1" fill="#000000" />
<rect x="27" y="26" width="1" height="1" fill="#000000" />
<rect x="28" y="26" width="1" height="1" fill="#000000" />
<rect x="29" y="26" width="1" height="1" fill="#000000" />
<rect x="30" y="26" width="1" height="1" fill="#3F3F74" />
<rect x="31" y="26" width="1" height="1" fill="#3F3F74" />
<rect x="32" y="26" width="1" height="1" fill="#3F3F74" />
<rect x="33" y="26" width="1" height="1" fill="#000000" />
<rect x="34" y="26" width="1" height="1" fill="#000000" />
<rect x="35" y="26" width="1" height="1" fill="#000000" />
<rect x="36" y="26" width="1" height="1" fill="#000000" />
<rect x="26" y="27" width="1" height="1" fill="#000000" />
<rect x="27" y="27" width="1" height="1" fill="#000000" />
<rect x="28" y="27" width="1" height="1" fill="#000000" />
<rect x="29" y="27" width="1" height="1" fill="#000000" />
<rect x="30" y="27" width="1" height="1" fill="#DF7126" />
<rect x="31" y="27" width="1" height="1" fill="#DF7126" />
<rect x="32" y="27" width="1" height="1" fill="#DF7126" />
<rect x="33" y="27" width="1" height="1" fill="#000000" />
<rect x="34" y="27" width="1" height="1" fill="#000000" />
<rect x="35" y="27" width="1" height="1" fill="#000000" />
<rect x="36" y="27" width="1" height="1" fill="#000000" />
<rect x="26" y="28" width="1" height="1" fill="#000000" />
<rect x="27" y="28" width="1" height="1" fill="#000000" />
<rect x="28" y="28" width="1" height="1" fill="#000000" />
<rect x="29" y="28" width="1" height="1" fill="#000000" />
<rect x="30" y="28" width="1" height="1" fill="#DF7126" />
<rect x="31" y="28" width="1" height="1" fill="#DF7126" />
<rect x="32" y="28" width="1" height="1" fill="#DF7126" />
<rect x="33" y="28" width="1" height="1" fill="#000000" />
<rect x="34" y="28" width="1" height="1" fill="#000000" />
<rect x="35" y="28" width="1" height="1" fill="#000000" />
<rect x="36" y="28" width="1" height="1" fill="#000000" />
<rect x="26" y="29" width="1" height="1" fill="#A64E11" />
<rect x="27" y="29" width="1" height="1" fill="#000000" />
<rect x="28" y="29" width="1" height="1" fill="#000000" />
<rect x="29" y="29" width="1" height="1" fill="#000000" />
<rect x="30" y="29" width="1" height="1" fill="#A64E11" />
<rect x="31" y="29" width="1" height="1" fill="#DF7126" />
<rect x="32" y="29" width="1" height="1" fill="#A64E11" />
<rect x="33" y="29" width="1" height="1" fill="#000000" />
<rect x="34" y="29" width="1" height="1" fill="#000000" />
<rect x="35" y="29" width="1" height="1" fill="#000000" />
<rect x="36" y="29" width="1" height="1" fill="#A64E11" />
<rect x="26" y="30" width="1" height="1" fill="#A64E11" />
<rect x="27" y="30" width="1" height="1" fill="#DF7126" />
<rect x="28" y="30" width="1" height="1" fill="#DF7126" />
<rect x="29" y="30" width="1" height="1" fill="#A64E11" />
<rect x="30" y="30" width="1" height="1" fill="#A64E11" />
<rect x="31" y="30" width="1" height="1" fill="#DF7126" />
<rect x="32" y="30" width="1" height="1" fill="#A64E11" />
<rect x="33" y="30" width="1" height="1" fill="#A64E11" />
<rect x="34" y="30" width="1" height="1" fill="#DF7126" />
<rect x="35" y="30" width="1" height="1" fill="#DF7126" />
<rect x="36" y="30" width="1" height="1" fill="#A64E11" />
<rect x="27" y="31" width="1" height="1" fill="#DF7126" />
<rect x="28" y="31" width="1" height="1" fill="#DF7126" />
<rect x="29" y="31" width="1" height="1" fill="#DF7126" />
<rect x="30" y="31" width="1" height="1" fill="#DF7126" />
<rect x="31" y="31" width="1" height="1" fill="#DF7126" />
<rect x="32" y="31" width="1" height="1" fill="#DF7126" />
<rect x="33" y="31" width="1" height="1" fill="#DF7126" />
<rect x="34" y="31" width="1" height="1" fill="#DF7126" />
<rect x="35" y="31" width="1" height="1" fill="#DF7126" />
<rect x="26" y="32" width="1" height="1" fill="#DF7126" />
<rect x="27" y="32" width="1" height="1" fill="#A64E11" />
<rect x="28" y="32" width="1" height="1" fill="#A64E11" />
<rect x="29" y="32" width="1" height="1" fill="#A64E11" />
<rect x="30" y="32" width="1" height="1" fill="#DF7126" />
<rect x="31" y="32" width="1" height="1" fill="#DF7126" />
<rect x="32" y="32" width="1" height="1" fill="#DF7126" />
<rect x="33" y="32" width="1" height="1" fill="#DF7126" />
<rect x="34" y="32" width="1" height="1" fill="#A64E11" />
<rect x="35" y="32" width="1" height="1" fill="#A64E11" />
<rect x="36" y="32" width="1" height="1" fill="#DF7126" />
<rect x="29" y="33" width="1" height="1" fill="#A64E11" />
<rect x="30" y="33" width="1" height="1" fill="#A64E11" />
<rect x="31" y="33" width="1" height="1" fill="#A64E11" />
<rect x="32" y="33" width="1" height="1" fill="#A64E11" />
<rect x="33" y="33" width="1" height="1" fill="#A64E11" />
<rect x="27" y="34" width="1" height="1" fill="#A64E11" />
<rect x="28" y="34" width="1" height="1" fill="#A64E11" />
<rect x="29" y="34" width="1" height="1" fill="#DF7126" />
<rect x="30" y="34" width="1" height="1" fill="#DF7126" />
<rect x="31" y="34" width="1" height="1" fill="#DF7126" />
<rect x="32" y="34" width="1" height="1" fill="#DF7126" />
<rect x="33" y="34" width="1" height="1" fill="#DF7126" />
<rect x="34" y="34" width="1" height="1" fill="#A64E11" />
<rect x="35" y="34" width="1" height="1" fill="#A64E11" />
<rect x="26" y="35" width="1" height="1" fill="#A64E11" />
<rect x="27" y="35" width="1" height="1" fill="#A64E11" />
<rect x="28" y="35" width="1" height="1" fill="#DF7126" />
<rect x="29" y="35" width="1" height="1" fill="#DF7126" />
<rect x="30" y="35" width="1" height="1" fill="#DF7126" />
<rect x="31" y="35" width="1" height="1" fill="#DF7126" />
<rect x="32" y="35" width="1" height="1" fill="#DF7126" />
<rect x="33" y="35" width="1" height="1" fill="#DF7126" />
<rect x="34" y="35" width="1" height="1" fill="#DF7126" />
<rect x="35" y="35" width="1" height="1" fill="#A64E11" />
<rect x="36" y="35" width="1" height="1" fill="#A64E11" />
<rect x="26" y="36" width="1" height="1" fill="#A64E11" />
<rect x="27" y="36" width="1" height="1" fill="#DF7126" />
<rect x="28" y="36" width="1" height="1" fill="#DF7126" />
<rect x="29" y="36" width="1" height="1" fill="#DF7126" />
<rect x="30" y="36" width="1" height="1" fill="#DF7126" />
<rect x="31" y="36" width="1" height="1" fill="#A64E11" />
<rect x="32" y="36" width="1" height="1" fill="#DF7126" />
<rect x="33" y="36" width="1" height="1" fill="#DF7126" />
<rect x="34" y="36" width="1" height="1" fill="#DF7126" />
<rect x="35" y="36" width="1" height="1" fill="#DF7126" />
<rect x="36" y="36" width="1" height="1" fill="#A64E11" />
<rect x="26" y="37" width="1" height="1" fill="#DF7126" />
<rect x="27" y="37" width="1" height="1" fill="#DF7126" />
<rect x="28" y="37" width="1" height="1" fill="#A64E11" />
<rect x="29" y="37" width="1" height="1" fill="#DF7126" />
<rect x="30" y="37" width="1" height="1" fill="#DF7126" />
<rect x="31" y="37" width="1" height="1" fill="#A64E11" />
<rect x="32" y="37" width="1" height="1" fill="#DF7126" />
<rect x="33" y="37" width="1" height="1" fill="#DF7126" />
<rect x="34" y="37" width="1" height="1" fill="#A64E11" />
<rect x="35" y="37" width="1" height="1" fill="#DF7126" />
<rect x="36" y="37" width="1" height="1" fill="#DF7126" />
<rect x="26" y="38" width="1" height="1" fill="#DF7126" />
<rect x="27" y="38" width="1" height="1" fill="#DF7126" />
<rect x="28" y="38" width="1" height="1" fill="#A64E11" />
<rect x="29" y="38" width="1" height="1" fill="#DF7126" />
<rect x="30" y="38" width="1" height="1" fill="#DF7126" />
<rect x="31" y="38" width="1" height="1" fill="#A64E11" />
<rect x="32" y="38" width="1" height="1" fill="#DF7126" />
<rect x="33" y="38" width="1" height="1" fill="#DF7126" />
<rect x="34" y="38" width="1" height="1" fill="#A64E11" />
<rect x="35" y="38" width="1" height="1" fill="#DF7126" />
<rect x="36" y="38" width="1" height="1" fill="#DF7126" />
<rect x="25" y="39" width="1" height="1" fill="#DF7126" />
<rect x="26" y="39" width="1" height="1" fill="#DF7126" />
<rect x="27" y="39" width="1" height="1" fill="#A64E11" />
<rect x="28" y="39" width="1" height="1" fill="#A64E11" />
<rect x="29" y="39" width="1" height="1" fill="#DF7126" />
<rect x="30" y="39" width="1" height="1" fill="#DF7126" />
<rect x="31" y="39" width="1" height="1" fill="#A64E11" />
<rect x="32" y="39" width="1" height="1" fill="#DF7126" />
<rect x="33" y="39" width="1" height="1" fill="#DF7126" />
<rect x="34" y="39" width="1" height="1" fill="#A64E11" />
<rect x="35" y="39" width="1" height="1" fill="#A64E11" />
<rect x="36" y="39" width="1" height="1" fill="#DF7126" />
<rect x="37" y="39" width="1" height="1" fill="#DF7126" />
<rect x="25" y="40" width="1" height="1" fill="#DF7126" />
<rect x="26" y="40" width="1" height="1" fill="#DF7126" />
<rect x="28" y="40" width="1" height="1" fill="#A64E11" />
<rect x="29" y="40" width="1" height="1" fill="#DF7126" />
<rect x="30" y="40" width="1" height="1" fill="#DF7126" />
<rect x="31" y="40" width="1" height="1" fill="#A64E11" />
<rect x="32" y="40" width="1" height="1" fill="#DF7126" />
<rect x="33" y="40" width="1" height="1" fill="#DF7126" />
<rect x="34" y="40" width="1" height="1" fill="#A64E11" />
<rect x="36" y="40" width="1" height="1" fill="#DF7126" />
<rect x="37" y="40" width="1" height="1" fill="#DF7126" />
<rect x="25" y="41" width="1" height="1" fill="#DF7126" />
<rect x="26" y="41" width="1" height="1" fill="#DF7126" />
<rect x="28" y="41" width="1" height="1" fill="#A64E11" />
<rect x="29" y="41" width="1" height="1" fill="#DF7126" />
<rect x="30" y="41" width="1" height="1" fill="#DF7126" />
<rect x="31" y="41" width="1" height="1" fill="#DF7126" />
<rect x="32" y="41" width="1" height="1" fill="#DF7126" />
<rect x="33" y="41" width="1" height="1" fill="#DF7126" />
<rect x="34" y="41" width="1" height="1" fill="#A64E11" />
<rect x="36" y="41" width="1" height="1" fill="#DF7126" />
<rect x="37" y="41" width="1" height="1" fill="#DF7126" />
<rect x="24" y="42" width="1" height="1" fill="#412B27" />
<rect x="25" y="42" width="1" height="1" fill="#663931" />
<rect x="26" y="42" width="1" height="1" fill="#DF7126" />
<rect x="28" y="42" width="1" height="1" fill="#A64E11" />
<rect x="29" y="42" width="1" height="1" fill="#DF7126" />
<rect x="30" y="42" width="1" height="1" fill="#DF7126" />
<rect x="31" y="42" width="1" height="1" fill="#DF7126" />
<rect x="32" y="42" width="1" height="1" fill="#DF7126" />
<rect x="33" y="42" width="1" height="1" fill="#DF7126" />
<rect x="34" y="42" width="1" height="1" fill="#A64E11" />
<rect x="36" y="42" width="1" height="1" fill="#DF7126" />
<rect x="37" y="42" width="1" height="1" fill="#663931" />
<rect x="38" y="42" width="1" height="1" fill="#412B27" />
<rect x="24" y="43" width="1" height="1" fill="#412B27" />
<rect x="25" y="43" width="1" height="1" fill="#663931" />
<rect x="26" y="43" width="1" height="1" fill="#DF7126" />
<rect x="28" y="43" width="1" height="1" fill="#DF7126" />
<rect x="29" y="43" width="1" height="1" fill="#DF7126" />
<rect x="30" y="43" width="1" height="1" fill="#DF7126" />
<rect x="31" y="43" width="1" height="1" fill="#DF7126" />
<rect x="32" y="43" width="1" height="1" fill="#DF7126" />
<rect x="33" y="43" width="1" height="1" fill="#DF7126" />
<rect x="34" y="43" width="1" height="1" fill="#A64E11" />
<rect x="36" y="43" width="1" height="1" fill="#DF7126" />
<rect x="37" y="43" width="1" height="1" fill="#663931" />
<rect x="38" y="43" width="1" height="1" fill="#412B27" />
<rect x="24" y="44" width="1" height="1" fill="#412B27" />
<rect x="25" y="44" width="1" height="1" fill="#663931" />
<rect x="28" y="44" width="1" height="1" fill="#DF7126" />
<rect x="29" y="44" width="1" height="1" fill="#DF7126" />
<rect x="30" y="44" width="1" height="1" fill="#DF7126" />
<rect x="31" y="44" width="1" height="1" fill="#DF7126" />
<rect x="32" y="44" width="1" height="1" fill="#DF7126" />
<rect x="33" y="44" width="1" height="1" fill="#DF7126" />
<rect x="34" y="44" width="1" height="1" fill="#DF7126" />
<rect x="37" y="44" width="1" height="1" fill="#663931" />
<rect x="38" y="44" width="1" height="1" fill="#412B27" />
<rect x="24" y="45" width="1" height="1" fill="#412B27" />
<rect x="25" y="45" width="1" height="1" fill="#663931" />
<rect x="28" y="45" width="1" height="1" fill="#DF7126" />
<rect x="29" y="45" width="1" height="1" fill="#A64E11" />
<rect x="30" y="45" width="1" height="1" fill="#A64E11" />
<rect x="31" y="45" width="1" height="1" fill="#A64E11" />
<rect x="32" y="45" width="1" height="1" fill="#A64E11" />
<rect x="33" y="45" width="1" height="1" fill="#DF7126" />
<rect x="34" y="45" width="1" height="1" fill="#DF7126" />
<rect x="37" y="45" width="1" height="1" fill="#663931" />
<rect x="38" y="45" width="1" height="1" fill="#412B27" />
<rect x="24" y="46" width="1" height="1" fill="#412B27" />
<rect x="25" y="46" width="1" height="1" fill="#663931" />
<rect x="27" y="46" width="1" height="1" fill="#DF7126" />
<rect x="28" y="46" width="1" height="1" fill="#A64E11" />
<rect x="29" y="46" width="1" height="1" fill="#A64E11" />
<rect x="30" y="46" width="1" height="1" fill="#DF7126" />
<rect x="31" y="46" width="1" height="1" fill="#DF7126" />
<rect x="32" y="46" width="1" height="1" fill="#A64E11" />
<rect x="33" y="46" width="1" height="1" fill="#DF7126" />
<rect x="34" y="46" width="1" height="1" fill="#DF7126" />
<rect x="35" y="46" width="1" height="1" fill="#DF7126" />
<rect x="37" y="46" width="1" height="1" fill="#663931" />
<rect x="38" y="46" width="1" height="1" fill="#412B27" />
<rect x="24" y="47" width="1" height="1" fill="#412B27" />
<rect x="25" y="47" width="1" height="1" fill="#663931" />
<rect x="27" y="47" width="1" height="1" fill="#DF7126" />
<rect x="28" y="47" width="1" height="1" fill="#A64E11" />
<rect x="29" y="47" width="1" height="1" fill="#DF7126" />
<rect x="30" y="47" width="1" height="1" fill="#DF7126" />
<rect x="31" y="47" width="1" height="1" fill="#DF7126" />
<rect x="32" y="47" width="1" height="1" fill="#DF7126" />
<rect x="33" y="47" width="1" height="1" fill="#A64E11" />
<rect x="34" y="47" width="1" height="1" fill="#DF7126" />
<rect x="35" y="47" width="1" height="1" fill="#DF7126" />
<rect x="37" y="47" width="1" height="1" fill="#663931" />
<rect x="38" y="47" width="1" height="1" fill="#412B27" />
<rect x="24" y="48" width="1" height="1" fill="#412B27" />
<rect x="25" y="48" width="1" height="1" fill="#412B27" />
<rect x="26" y="48" width="1" height="1" fill="#663931" />
<rect x="27" y="48" width="1" height="1" fill="#A64E11" />
<rect x="28" y="48" width="1" height="1" fill="#A64E11" />
<rect x="29" y="48" width="1" height="1" fill="#DF7126" />
<rect x="30" y="48" width="1" height="1" fill="#DF7126" />
<rect x="31" y="48" width="1" height="1" fill="#DF7126" />
<rect x="32" y="48" width="1" height="1" fill="#DF7126" />
<rect x="33" y="48" width="1" height="1" fill="#A64E11" />
<rect x="34" y="48" width="1" height="1" fill="#DF7126" />
<rect x="35" y="48" width="1" height="1" fill="#DF7126" />
<rect x="36" y="48" width="1" height="1" fill="#663931" />
<rect x="37" y="48" width="1" height="1" fill="#412B27" />
<rect x="38" y="48" width="1" height="1" fill="#412B27" />
<rect x="24" y="49" width="1" height="1" fill="#412B27" />
<rect x="25" y="49" width="1" height="1" fill="#412B27" />
<rect x="26" y="49" width="1" height="1" fill="#412B27" />
<rect x="27" y="49" width="1" height="1" fill="#DF7126" />
<rect x="28" y="49" width="1" height="1" fill="#DF7126" />
<rect x="29" y="49" width="1" height="1" fill="#DF7126" />
<rect x="30" y="49" width="1" height="1" fill="#DF7126" />
<rect x="31" y="49" width="1" height="1" fill="#DF7126" />
<rect x="32" y="49" width="1" height="1" fill="#DF7126" />
<rect x="33" y="49" width="1" height="1" fill="#A64E11" />
<rect x="34" y="49" width="1" height="1" fill="#DF7126" />
<rect x="35" y="49" width="1" height="1" fill="#DF7126" />
<rect x="36" y="49" width="1" height="1" fill="#412B27" />
<rect x="37" y="49" width="1" height="1" fill="#412B27" />
<rect x="38" y="49" width="1" height="1" fill="#412B27" />
<rect x="24" y="50" width="1" height="1" fill="#412B27" />
<rect x="25" y="50" width="1" height="1" fill="#412B27" />
<rect x="26" y="50" width="1" height="1" fill="#412B27" />
<rect x="27" y="50" width="1" height="1" fill="#DF7126" />
<rect x="28" y="50" width="1" height="1" fill="#DF7126" />
<rect x="29" y="50" width="1" height="1" fill="#DF7126" />
<rect x="30" y="50" width="1" height="1" fill="#DF7126" />
<rect x="31" y="50" width="1" height="1" fill="#DF7126" />
<rect x="32" y="50" width="1" height="1" fill="#DF7126" />
<rect x="33" y="50" width="1" height="1" fill="#A64E11" />
<rect x="34" y="50" width="1" height="1" fill="#DF7126" />
<rect x="35" y="50" width="1" height="1" fill="#DF7126" />
<rect x="36" y="50" width="1" height="1" fill="#412B27" />
<rect x="37" y="50" width="1" height="1" fill="#412B27" />
<rect x="38" y="50" width="1" height="1" fill="#412B27" />
<rect x="27" y="51" width="1" height="1" fill="#DF7126" />
<rect x="28" y="51" width="1" height="1" fill="#DF7126" />
<rect x="29" y="51" width="1" height="1" fill="#DF7126" />
<rect x="30" y="51" width="1" height="1" fill="#DF7126" />
<rect x="31" y="51" width="1" height="1" fill="#DF7126" />
<rect x="32" y="51" width="1" height="1" fill="#DF7126" />
<rect x="33" y="51" width="1" height="1" fill="#A64E11" />
<rect x="34" y="51" width="1" height="1" fill="#DF7126" />
<rect x="35" y="51" width="1" height="1" fill="#DF7126" />
<rect x="27" y="52" width="1" height="1" fill="#DF7126" />
<rect x="28" y="52" width="1" height="1" fill="#DF7126" />
<rect x="29" y="52" width="1" height="1" fill="#DF7126" />
<rect x="30" y="52" width="1" height="1" fill="#DF7126" />
<rect x="31" y="52" width="1" height="1" fill="#DF7126" />
<rect x="32" y="52" width="1" height="1" fill="#DF7126" />
<rect x="33" y="52" width="1" height="1" fill="#A64E11" />
<rect x="34" y="52" width="1" height="1" fill="#DF7126" />
<rect x="35" y="52" width="1" height="1" fill="#DF7126" />
<rect x="27" y="53" width="1" height="1" fill="#DF7126" />
<rect x="28" y="53" width="1" height="1" fill="#DF7126" />
<rect x="29" y="53" width="1" height="1" fill="#DF7126" />
<rect x="30" y="53" width="1" height="1" fill="#DF7126" />
<rect x="31" y="53" width="1" height="1" fill="#DF7126" />
<rect x="32" y="53" width="1" height="1" fill="#DF7126" />
<rect x="33" y="53" width="1" height="1" fill="#A64E11" />
<rect x="34" y="53" width="1" height="1" fill="#DF7126" />
<rect x="35" y="53" width="1" height="1" fill="#DF7126" />
<rect x="27" y="54" width="1" height="1" fill="#DF7126" />
<rect x="28" y="54" width="1" height="1" fill="#DF7126" />
<rect x="29" y="54" width="1" height="1" fill="#DF7126" />
<rect x="30" y="54" width="1" height="1" fill="#DF7126" />
<rect x="31" y="54" width="1" height="1" fill="#DF7126" />
<rect x="32" y="54" width="1" height="1" fill="#DF7126" />
<rect x="33" y="54" width="1" height="1" fill="#DF7126" />
<rect x="34" y="54" width="1" height="1" fill="#A64E11" />
<rect x="35" y="54" width="1" height="1" fill="#DF7126" />
<rect x="27" y="55" width="1" height="1" fill="#DF7126" />
<rect x="28" y="55" width="1" height="1" fill="#DF7126" />
<rect x="29" y="55" width="1" height="1" fill="#DF7126" />
<rect x="30" y="55" width="1" height="1" fill="#DF7126" />
<rect x="31" y="55" width="1" height="1" fill="#DF7126" />
<rect x="32" y="55" width="1" height="1" fill="#DF7126" />
<rect x="33" y="55" width="1" height="1" fill="#DF7126" />
<rect x="34" y="55" width="1" height="1" fill="#A64E11" />
<rect x="35" y="55" width="1" height="1" fill="#A64E11" />
<rect x="36" y="55" width="1" height="1" fill="#DF7126" />
<rect x="28" y="56" width="1" height="1" fill="#DF7126" />
<rect x="29" y="56" width="1" height="1" fill="#DF7126" />
<rect x="30" y="56" width="1" height="1" fill="#DF7126" />
<rect x="31" y="56" width="1" height="1" fill="#DF7126" />
<rect x="32" y="56" width="1" height="1" fill="#DF7126" />
<rect x="33" y="56" width="1" height="1" fill="#DF7126" />
<rect x="34" y="56" width="1" height="1" fill="#DF7126" />
<rect x="35" y="56" width="1" height="1" fill="#A64E11" />
<rect x="36" y="56" width="1" height="1" fill="#A64E11" />
<rect x="28" y="57" width="1" height="1" fill="#DF7126" />
<rect x="29" y="57" width="1" height="1" fill="#DF7126" />
<rect x="30" y="57" width="1" height="1" fill="#DF7126" />
<rect x="31" y="57" width="1" height="1" fill="#DF7126" />
<rect x="32" y="57" width="1" height="1" fill="#DF7126" />
<rect x="33" y="57" width="1" height="1" fill="#DF7126" />
<rect x="34" y="57" width="1" height="1" fill="#DF7126" />
<rect x="35" y="57" width="1" height="1" fill="#DF7126" />
<rect x="36" y="57" width="1" height="1" fill="#DF7126" />
<rect x="29" y="58" width="1" height="1" fill="#412B27" />
<rect x="30" y="58" width="1" height="1" fill="#DF7126" />
<rect x="31" y="58" width="1" height="1" fill="#DF7126" />
<rect x="32" y="58" width="1" height="1" fill="#DF7126" />
<rect x="33" y="58" width="1" height="1" fill="#DF7126" />
<rect x="34" y="58" width="1" height="1" fill="#DF7126" />
<rect x="35" y="58" width="1" height="1" fill="#FFFFFF" />
<rect x="36" y="58" width="1" height="1" fill="#FFFFFF" />
<rect x="29" y="59" width="1" height="1" fill="#412B27" />
<rect x="30" y="59" width="1" height="1" fill="#DF7126" />
<rect x="31" y="59" width="1" height="1" fill="#DF7126" />
<rect x="32" y="59" width="1" height="1" fill="#DF7126" />
<rect x="33" y="59" width="1" height="1" fill="#DF7126" />
<rect x="34" y="59" width="1" height="1" fill="#FFFFFF" />
<rect x="35" y="59" width="1" height="1" fill="#FFFFFF" />
<rect x="36" y="59" width="1" height="1" fill="#FFFFFF" />
<rect x="29" y="60" width="1" height="1" fill="#412B27" />
<rect x="30" y="60" width="1" height="1" fill="#663931" />
<rect x="31" y="60" width="1" height="1" fill="#DF7126" />
<rect x="32" y="60" width="1" height="1" fill="#FFFFFF" />
<rect x="33" y="60" width="1" height="1" fill="#FFFFFF" />
<rect x="34" y="60" width="1" height="1" fill="#FFFFFF" />
<rect x="35" y="60" width="1" height="1" fill="#FFFFFF" />
<rect x="36" y="60" width="1" height="1" fill="#FFFFFF" />
<rect x="29" y="61" width="1" height="1" fill="#412B27" />
<rect x="30" y="61" width="1" height="1" fill="#412B27" />
<rect x="32" y="61" width="1" height="1" fill="#FFFFFF" />
<rect x="33" y="61" width="1" height="1" fill="#FFFFFF" />
<rect x="34" y="61" width="1" height="1" fill="#FFFFFF" />
<rect x="35" y="61" width="1" height="1" fill="#FFFFFF" />
<rect x="36" y="61" width="1" height="1" fill="#FFFFFF" />
<rect x="27" y="62" width="1" height="1" fill="#412B27" />
<rect x="28" y="62" width="1" height="1" fill="#412B27" />
<rect x="29" y="62" width="1" height="1" fill="#412B27" />
<rect x="30" y="62" width="1" height="1" fill="#412B27" />
<rect x="32" y="62" width="1" height="1" fill="#412B27" />
<rect x="33" y="62" width="1" height="1" fill="#412B27" />
<rect x="34" y="62" width="1" height="1" fill="#FFFFFF" />
<rect x="35" y="62" width="1" height="1" fill="#FFFFFF" />
<rect x="36" y="62" width="1" height="1" fill="#FFFFFF" />
<rect x="37" y="62" width="1" height="1" fill="#FFFFFF" />
<rect x="26" y="63" width="1" height="1" fill="#412B27" />
<rect x="27" y="63" width="1" height="1" fill="#412B27" />
<rect x="28" y="63" width="1" height="1" fill="#412B27" />
<rect x="29" y="63" width="1" height="1" fill="#412B27" />
<rect x="30" y="63" width="1" height="1" fill="#412B27" />
<rect x="32" y="63" width="1" height="1" fill="#412B27" />
<rect x="33" y="63" width="1" height="1" fill="#412B27" />
<rect x="34" y="63" width="1" height="1" fill="#412B27" />
<rect x="35" y="63" width="1" height="1" fill="#412B27" />
<rect x="36" y="63" width="1" height="1" fill="#412B27" />
<rect x="37" y="63" width="1" height="1" fill="#FFFFFF" />
</svg>