<?xml version="1.0" encoding="UTF-8" ?>
<svg version="1.1" width="64" height="64" xmlns="http://www.w3.org/2000/svg" shape-rendering="crispEdges">
<rect x="28" y="22" width="1" height="1" fill="#000000" />
<rect x="27" y="23" width="1" height="1" fill="#000000" />
<rect x="28" y="23" width="1" height="1" fill="#000000" />
<rect x="29" y="23" width="1" height="1" fill="#000000" />
<rect x="27" y="24" width="1" height="1" fill="#000000" />
<rect x="28" y="24" width="1" height="1" fill="#000000" />
<rect x="29" y="24" width="1" height="1" fill="#000000" />
<rect x="30" y="24" width="1" height="1" fill="#000000" />
<rect x="26" y="25" width="1" height="1" fill="#000000" />
<rect x="27" y="25" width="1" height="1" fill="#000000" />
<rect x="28" y="25" width="1" height="1" fill="#000000" />
<rect x="29" y="25" width="1" height="1" fill="#000000" />
<rect x="30" y="25" width="1" height="1" fill="#000000" />
<rect x="31" y="25" width="1" height="1" fill="#3F3F74" />
<rect x="32" y="25" width="1" height="1" fill="#3F3F74" />
<rect x="26" y="26" width="1" height="1" fill="#000000" />
<rect x="27" y="26" width="1" height="1" fill="#000000" />
<rect x="28" y="26" width="1" height="1" fill="#000000" />
<rect x="29" y="26" width="1" height="1" fill="#DF7126" />
<rect x="30" y="26" width="1" height="1" fill="#DF7126" />
<rect x="31" y="26" width="1" height="1" fill="#DF7126" />
<rect x="32" y="26" width="1" height="1" fill="#DF7126" />
<rect x="33" y="26" width="1" height="1" fill="#3F3F74" />
<rect x="26" y="27" width="1" height="1" fill="#000000" />
<rect x="27" y="27" width="1" height="1" fill="#000000" />
<rect x="28" y="27" width="1" height="1" fill="#DF7126" />
<rect x="29" y="27" width="1" height="1" fill="#DF7126" />
<rect x="30" y="27" width="1" height="1" fill="#DF7126" />
<rect x="31" y="27" width="1" height="1" fill="#A64E11" />
<rect x="32" y="27" width="1" height="1" fill="#A64E11" />
<rect x="33" y="27" width="1" height="1" fill="#DF7126" />
<rect x="25" y="28" width="1" height="1" fill="#DF7126" />
<rect x="26" y="28" width="1" height="1" fill="#DF7126" />
<rect x="27" y="28" width="1" height="1" fill="#DF7126" />
<rect x="28" y="28" width="1" height="1" fill="#DF7126" />
<rect x="29" y="28" width="1" height="1" fill="#DF7126" />
<rect x="30" y="28" width="1" height="1" fill="#DF7126" />
<rect x="31" y="28" width="1" height="1" fill="#FFFFFF" />
<rect x="32" y="28" width="1" height="1" fill="#847E87" />
<rect x="27" y="29" width="1" height="1" fill="#000000" />
<rect x="28" y="29" width="1" height="1" fill="#DF7126" />
<rect x="29" y="29" width="1" height="1" fill="#DF7126" />
<rect x="30" y="29" width="1" height="1" fill="#DF7126" />
<rect x="31" y="29" width="1" height="1" fill="#E3D4CB" />
<rect x="32" y="29" width="1" height="1" fill="#FFFFFF" />
<rect x="33" y="29" width="1" height="1" fill="#DF7126" />
<rect x="34" y="29" width="1" height="1" fill="#DF7126" />
<rect x="35" y="29" width="1" height="1" fill="#000000" />
<rect x="26" y="30" width="1" height="1" fill="#DF7126" />
<rect x="27" y="30" width="1" height="1" fill="#E3D4CB" />
<rect x="28" y="30" width="1" height="1" fill="#E3D4CB" />
<rect x="29" y="30" width="1" height="1" fill="#E3D4CB" />
<rect x="30" y="30" width="1" height="1" fill="#E3D4CB" />
<rect x="31" y="30" width="1" height="1" fill="#E3D4CB" />
<rect x="32" y="30" width="1" height="1" fill="#E3D4CB" />
<rect x="33" y="30" width="1" height="1" fill="#E3D4CB" />
<rect x="34" y="30" width="1" height="1" fill="#E3D4CB" />
<rect x="35" y="30" width="1" height="1" fill="#E3D4CB" />
<rect x="29" y="31" width="1" height="1" fill="#DF7126" />
<rect x="30" y="31" width="1" height="1" fill="#DF7126" />
<rect x="31" y="31" width="1" height="1" fill="#DFB79C" />
<rect x="32" y="31" width="1" height="1" fill="#DFB79C" />
<rect x="28" y="32" width="1" height="1" fill="#A64E11" />
<rect x="29" y="32" width="1" height="1" fill="#A64E11" />
<rect x="30" y="32" width="1" height="1" fill="#DF7126" />
<rect x="31" y="32" width="1" height="1" fill="#DFB79C" />
<rect x="32" y="32" width="1" height="1" fill="#DFB79C" />
<rect x="27" y="33" width="1" height="1" fill="#A64E11" />
<rect x="28" y="33" width="1" height="1" fill="#DF7126" />
<rect x="29" y="33" width="1" height="1" fill="#DF7126" />
<rect x="30" y="33" width="1" height="1" fill="#DF7126" />
<rect x="31" y="33" width="1" height="1" fill="#DF7126" />
<rect x="32" y="33" width="1" height="1" fill="#E3D4CB" />
<rect x="27" y="34" width="1" height="1" fill="#A64E11" />
<rect x="28" y="34" width="1" height="1" fill="#DF7126" />
<rect x="29" y="34" width="1" height="1" fill="#DF7126" />
<rect x="30" y="34" width="1" height="1" fill="#A64E11" />
<rect x="31" y="34" width="1" height="1" fill="#DF7126" />
<rect x="32" y="34" width="1" height="1" fill="#E3D4CB" />
<rect x="33" y="34" width="1" height="1" fill="#E3D4CB" />
<rect x="27" y="35" width="1" height="1" fill="#A64E11" />
<rect x="28" y="35" width="1" height="1" fill="#DF7126" />
<rect x="29" y="35" width="1" height="1" fill="#DF7126" />
<rect x="30" y="35" width="1" height="1" fill="#A64E11" />
<rect x="31" y="35" width="1" height="1" fill="#DF7126" />
<rect x="32" y="35" width="1" height="1" fill="#E3D4CB" />
<rect x="33" y="35" width="1" height="1" fill="#E3D4CB" />
<rect x="27" y="36" width="1" height="1" fill="#DF7126" />
<rect x="28" y="36" width="1" height="1" fill="#DF7126" />
<rect x="29" y="36" width="1" height="1" fill="#DF7126" />
<rect x="30" y="36" width="1" height="1" fill="#A64E11" />
<rect x="31" y="36" width="1" height="1" fill="#DF7126" />
<rect x="32" y="36" width="1" height="1" fill="#DF7126" />
<rect x="33" y="36" width="1" height="1" fill="#E3D4CB" />
<rect x="27" y="37" width="1" height="1" fill="#DF7126" />
<rect x="28" y="37" width="1" height="1" fill="#DF7126" />
<rect x="29" y="37" width="1" height="1" fill="#DF7126" />
<rect x="30" y="37" width="1" height="1" fill="#A64E11" />
<rect x="31" y="37" width="1" height="1" fill="#DF7126" />
<rect x="32" y="37" width="1" height="1" fill="#DF7126" />
<rect x="33" y="37" width="1" height="1" fill="#E3D4CB" />
<rect x="27" y="38" width="1" height="1" fill="#DF7126" />
<rect x="28" y="38" width="1" height="1" fill="#DF7126" />
<rect x="29" y="38" width="1" height="1" fill="#DF7126" />
<rect x="30" y="38" width="1" height="1" fill="#A64E11" />
<rect x="31" y="38" width="1" height="1" fill="#DF7126" />
<rect x="32" y="38" width="1" height="1" fill="#DF7126" />
<rect x="33" y="38" width="1" height="1" fill="#E3D4CB" />
<rect x="27" y="39" width="1" height="1" fill="#DF7126" />
<rect x="28" y="39" width="1" height="1" fill="#412B27" />
<rect x="29" y="39" width="1" height="1" fill="#663931" />
<rect x="30" y="39" width="1" height="1" fill="#A64E11" />
<rect x="31" y="39" width="1" height="1" fill="#DF7126" />
<rect x="32" y="39" width="1" height="1" fill="#E3D4CB" />
<rect x="33" y="39" width="1" height="1" fill="#E3D4CB" />
<rect x="27" y="40" width="1" height="1" fill="#DF7126" />
<rect x="28" y="40" width="1" height="1" fill="#412B27" />
<rect x="29" y="40" width="1" height="1" fill="#663931" />
<rect x="30" y="40" width="1" height="1" fill="#A64E11" />
<rect x="31" y="40" width="1" height="1" fill="#DF7126" />
<rect x="32" y="40" width="1" height="1" fill="#E3D4CB" />
<rect x="27" y="41" width="1" height="1" fill="#DF7126" />
<rect x="28" y="41" width="1" height="1" fill="#412B27" />
<rect x="29" y="41" width="1" height="1" fill="#663931" />
<rect x="30" y="41" width="1" height="1" fill="#A64E11" />
<rect x="31" y="41" width="1" height="1" fill="#DF7126" />
<rect x="32" y="41" width="1" height="1" fill="#E3D4CB" />
<rect x="27" y="42" width="1" height="1" fill="#412B27" />
<rect x="28" y="42" width="1" height="1" fill="#412B27" />
<rect x="29" y="42" width="1" height="1" fill="#663931" />
<rect x="30" y="42" width="1" height="1" fill="#A64E11" />
<rect x="31" y="42" width="1" height="1" fill="#DF7126" />
<rect x="32" y="42" width="1" height="1" fill="#E3D4CB" />
<rect x="27" y="43" width="1" height="1" fill="#DF7126" />
<rect x="28" y="43" width="1" height="1" fill="#412B27" />
<rect x="29" y="43" width="1" height="1" fill="#412B27" />
<rect x="30" y="43" width="1" height="1" fill="#A64E11" />
<rect x="31" y="43" width="1" height="1" fill="#A64E11" />
<rect x="32" y="43" width="1" height="1" fill="#E3D4CB" />
<rect x="27" y="44" width="1" height="1" fill="#DF7126" />
<rect x="28" y="44" width="1" height="1" fill="#412B27" />
<rect x="29" y="44" width="1" height="1" fill="#412B27" />
<rect x="30" y="44" width="1" height="1" fill="#663931" />
<rect x="31" y="44" width="1" height="1" fill="#A64E11" />
<rect x="32" y="44" width="1" height="1" fill="#E3D4CB" />
<rect x="27" y="45" width="1" height="1" fill="#A65823" />
<rect x="28" y="45" width="1" height="1" fill="#412B27" />
<rect x="29" y="45" width="1" height="1" fill="#412B27" />
<rect x="30" y="45" width="1" height="1" fill="#663931" />
<rect x="31" y="45" width="1" height="1" fill="#A64E11" />
<rect x="32" y="45" width="1" height="1" fill="#E3D4CB" />
<rect x="26" y="46" width="1" height="1" fill="#A65823" />
<rect x="27" y="46" width="1" height="1" fill="#A65823" />
<rect x="28" y="46" width="1" height="1" fill="#DF7126" />
<rect x="29" y="46" width="1" height="1" fill="#412B27" />
<rect x="30" y="46" width="1" height="1" fill="#663931" />
<rect x="31" y="46" width="1" height="1" fill="#663931" />
<rect x="32" y="46" width="1" height="1" fill="#E3D4CB" />
<rect x="25" y="47" width="1" height="1" fill="#DF7126" />
<rect x="26" y="47" width="1" height="1" fill="#A65823" />
<rect x="27" y="47" width="1" height="1" fill="#A65823" />
<rect x="28" y="47" width="1" height="1" fill="#DF7126" />
<rect x="29" y="47" width="1" height="1" fill="#412B27" />
<rect x="30" y="47" width="1" height="1" fill="#663931" />
<rect x="31" y="47" width="1" height="1" fill="#663931" />
<rect x="32" y="47" width="1" height="1" fill="#E3D4CB" />
<rect x="25" y="48" width="1" height="1" fill="#DF7126" />
<rect x="26" y="48" width="1" height="1" fill="#A65823" />
<rect x="27" y="48" width="1" height="1" fill="#A65823" />
<rect x="28" y="48" width="1" height="1" fill="#DF7126" />
<rect x="29" y="48" width="1" height="1" fill="#412B27" />
<rect x="30" y="48" width="1" height="1" fill="#412B27" />
<rect x="31" y="48" width="1" height="1" fill="#663931" />
<rect x="32" y="48" width="1" height="1" fill="#DF7126" />
<rect x="25" y="49" width="1" height="1" fill="#DF7126" />
<rect x="26" y="49" width="1" height="1" fill="#A65823" />
<rect x="27" y="49" width="1" height="1" fill="#DF7126" />
<rect x="28" y="49" width="1" height="1" fill="#DF7126" />
<rect x="29" y="49" width="1" height="1" fill="#DF7126" />
<rect x="30" y="49" width="1" height="1" fill="#DF7126" />
<rect x="31" y="49" width="1" height="1" fill="#DF7126" />
<rect x="32" y="49" width="1" height="1" fill="#DF7126" />
<rect x="33" y="49" width="1" height="1" fill="#DF7126" />
<rect x="24" y="50" width="1" height="1" fill="#DF7126" />
<rect x="25" y="50" width="1" height="1" fill="#DF7126" />
<rect x="26" y="50" width="1" height="1" fill="#A65823" />
<rect x="27" y="50" width="1" height="1" fill="#A65823" />
<rect x="28" y="50" width="1" height="1" fill="#DF7126" />
<rect x="29" y="50" width="1" height="1" fill="#DF7126" />
<rect x="30" y="50" width="1" height="1" fill="#DF7126" />
<rect x="31" y="50" width="1" height="1" fill="#DF7126" />
<rect x="32" y="50" width="1" height="1" fill="#DF7126" />
<rect x="33" y="50" width="1" height="1" fill="#DF7126" />
<rect x="24" y="51" width="1" height="1" fill="#DF7126" />
<rect x="25" y="51" width="1" height="1" fill="#DF7126" />
<rect x="26" y="51" width="1" height="1" fill="#A65823" />
<rect x="27" y="51" width="1" height="1" fill="#A65823" />
<rect x="28" y="51" width="1" height="1" fill="#A65823" />
<rect x="29" y="51" width="1" height="1" fill="#DF7126" />
<rect x="30" y="51" width="1" height="1" fill="#DF7126" />
<rect x="31" y="51" width="1" height="1" fill="#DF7126" />
<rect x="32" y="51" width="1" height="1" fill="#DF7126" />
<rect x="33" y="51" width="1" height="1" fill="#DF7126" />
<rect x="24" y="52" width="1" height="1" fill="#DF7126" />
<rect x="25" y="52" width="1" height="1" fill="#DF7126" />
<rect x="26" y="52" width="1" height="1" fill="#A65823" />
<rect x="27" y="52" width="1" height="1" fill="#A65823" />
<rect x="28" y="52" width="1" height="1" fill="#A65823" />
<rect x="29" y="52" width="1" height="1" fill="#DF7126" />
<rect x="30" y="52" width="1" height="1" fill="#DF7126" />
<rect x="31" y="52" width="1" height="1" fill="#DF7126" />
<rect x="32" y="52" width="1" height="1" fill="#DF7126" />
<rect x="33" y="52" width="1" height="1" fill="#DF7126" />
<rect x="24" y="53" width="1" height="1" fill="#DF7126" />
<rect x="25" y="53" width="1" height="1" fill="#DF7126" />
<rect x="26" y="53" width="1" height="1" fill="#DF7126" />
<rect x="27" y="53" width="1" height="1" fill="#A65823" />
<rect x="28" y="53" width="1" height="1" fill="#A65823" />
<rect x="29" y="53" width="1" height="1" fill="#DF7126" />
<rect x="30" y="53" width="1" height="1" fill="#DF7126" />
<rect x="31" y="53" width="1" height="1" fill="#DF7126" />
<rect x="32" y="53" width="1" height="1" fill="#DF7126" />
<rect x="24" y="54" width="1" height="1" fill="#DF7126" />
<rect x="25" y="54" width="1" height="1" fill="#DF7126" />
<rect x="26" y="54" width="1" height="1" fill="#DF7126" />
<rect x="27" y="54" width="1" height="1" fill="#A65823" />
<rect x="28" y="54" width="1" height="1" fill="#A65823" />
<rect x="29" y="54" width="1" height="1" fill="#663931" />
<rect x="30" y="54" width="1" height="1" fill="#DF7126" />
<rect x="31" y="54" width="1" height="1" fill="#DF7126" />
<rect x="32" y="54" width="1" height="1" fill="#DF7126" />
<rect x="24" y="55" width="1" height="1" fill="#DF7126" />
<rect x="25" y="55" width="1" height="1" fill="#DF7126" />
<rect x="26" y="55" width="1" height="1" fill="#DF7126" />
<rect x="27" y="55" width="1" height="1" fill="#A65823" />
<rect x="28" y="55" width="1" height="1" fill="#A65823" />
<rect x="29" y="55" width="1" height="1" fill="#412B27" />
<rect x="30" y="55" width="1" height="1" fill="#663931" />
<rect x="31" y="55" width="1" height="1" fill="#DF7126" />
<rect x="32" y="55" width="1" height="1" fill="#DF7126" />
<rect x="23" y="56" width="1" height="1" fill="#DF7126" />
<rect x="24" y="56" width="1" height="1" fill="#DF7126" />
<rect x="25" y="56" width="1" height="1" fill="#DF7126" />
<rect x="26" y="56" width="1" height="1" fill="#DF7126" />
<rect x="27" y="56" width="1" height="1" fill="#A65823" />
<rect x="28" y="56" width="1" height="1" fill="#A65823" />
<rect x="29" y="56" width="1" height="1" fill="#412B27" />
<rect x="30" y="56" width="1" height="1" fill="#663931" />
<rect x="31" y="56" width="1" height="1" fill="#663931" />
<rect x="32" y="56" width="1" height="1" fill="#DF7126" />
<rect x="22" y="57" width="1" height="1" fill="#FFFFFF" />
<rect x="23" y="57" width="1" height="1" fill="#FFFFFF" />
<rect x="24" y="57" width="1" height="1" fill="#DF7126" />
<rect x="25" y="57" width="1" height="1" fill="#DF7126" />
<rect x="26" y="57" width="1" height="1" fill="#DF7126" />
<rect x="27" y="57" width="1" height="1" fill="#A65823" />
<rect x="28" y="57" width="1" height="1" fill="#A65823" />
<rect x="29" y="57" width="1" height="1" fill="#412B27" />
<rect x="30" y="57" width="1" height="1" fill="#663931" />
<rect x="31" y="57" width="1" height="1" fill="#663931" />
<rect x="18" y="58" width="1" height="1" fill="#FFFFFF" />
<rect x="19" y="58" width="1" height="1" fill="#FFFFFF" />
<rect x="20" y="58" width="1" height="1" fill="#FFFFFF" />
<rect x="21" y="58" width="1" height="1" fill="#FFFFFF" />
<rect x="22" y="58" width="1" height="1" fill="#FFFFFF" />
<rect x="23" y="58" width="1" height="1" fill="#FFFFFF" />
<rect x="24" y="58" width="1" height="1" fill="#DF7126" />
<rect x="25" y="58" width="1" height="1" fill="#DF7126" />
<rect x="26" y="58" width="1" height="1" fill="#DF7126" />
<rect x="27" y="58" width="1" height="1" fill="#A65823" />
<rect x="28" y="58" width="1" height="1" fill="#A65823" />
<rect x="29" y="58" width="1" height="1" fill="#412B27" />
<rect x="30" y="58" width="1" height="1" fill="#412B27" />
<rect x="18" y="59" width="1" height="1" fill="#FFFFFF" />
<rect x="19" y="59" width="1" height="1" fill="#FFFFFF" />
<rect x="20" y="59" width="1" height="1" fill="#FFFFFF" />
<rect x="21" y="59" width="1" height="1" fill="#FFFFFF" />
<rect x="22" y="59" width="1" height="1" fill="#FFFFFF" />
<rect x="23" y="59" width="1" height="1" fill="#FFFFFF" />
<rect x="24" y="59" width="1" height="1" fill="#DF7126" />
<rect x="25" y="59" width="1" height="1" fill="#DF7126" />
<rect x="26" y="59" width="1" height="1" fill="#DF7126" />
<rect x="27" y="59" width="1" height="1" fill="#A65823" />
<rect x="28" y="59" width="1" height="1" fill="#A65823" />
<rect x="29" y="59" width="1" height="1" fill="#412B27" />
<rect x="30" y="59" width="1" height="1" fill="#412B27" />
<rect x="19" y="60" width="1" height="1" fill="#FFFFFF" />
<rect x="20" y="60" width="1" height="1" fill="#FFFFFF" />
<rect x="21" y="60" width="1" height="1" fill="#FFFFFF" />
<rect x="22" y="60" width="1" height="1" fill="#FFFFFF" />
<rect x="23" y="60" width="1" height="1" fill="#FFFFFF" />
<rect x="24" y="60" width="1" height="1" fill="#FFFFFF" />
<rect x="25" y="60" width="1" height="1" fill="#DF7126" />
<rect x="26" y="60" width="1" height="1" fill="#DF7126" />
<rect x="27" y="60" width="1" height="1" fill="#A65823" />
<rect x="28" y="60" width="1" height="1" fill="#A65823" />
<rect x="29" y="60" width="1" height="1" fill="#412B27" />
<rect x="30" y="60" width="1" height="1" fill="#412B27" />
<rect x="20" y="61" width="1" height="1" fill="#FFFFFF" />
<rect x="21" y="61" width="1" height="1" fill="#FFFFFF" />
<rect x="22" y="61" width="1" height="1" fill="#FFFFFF" />
<rect x="23" y="61" width="1" height="1" fill="#FFFFFF" />
<rect x="24" y="61" width="1" height="1" fill="#FFFFFF" />
<rect x="25" y="61" width="1" height="1" fill="#DF7126" />
<rect x="26" y="61" width="1" height="1" fill="#A65823" />
<rect x="27" y="61" width="1" height="1" fill="#A65823" />
<rect x="29" y="61" width="1" height="1" fill="#412B27" />
<rect x="30" y="61" width="1" height="1" fill="#412B27" />
<rect x="21" y="62" width="1" height="1" fill="#DF7126" />
<rect x="22" y="62" width="1" height="1" fill="#FFFFFF" />
<rect x="23" y="62" width="1" height="1" fill="#FFFFFF" />
<rect x="24" y="62" width="1" height="1" fill="#FFFFFF" />
<rect x="25" y="62" width="1" height="1" fill="#A65823" />
<rect x="26" y="62" width="1" height="1" fill="#A65823" />
<rect x="29" y="62" width="1" height="1" fill="#412B27" />
<rect x="30" y="62" width="1" height="1" fill="#412B27" />
<rect x="31" y="62" width="1" height="1" fill="#412B27" />
<rect x="32" y="62" width="1" height="1" fill="#412B27" />
<rect x="29" y="63" width="1" height="1" fill="#412B27" />
<rect x="30" y="63" width="1" height="1" fill="#412B27" />
<rect x="31" y="63" width="1" height="1" fill="#412B27" />
<rect x="32" y="63" width="1" height="1" fill="#412B27" />
<rect x="33" y="63" width="1" height="1" fill="#412B27" />
</svg>